<?xml version="1.0" encoding="UTF-8" standalone="no"?>
<!-- Created with Inkscape (http://www.inkscape.org/) -->

<svg
   xmlns:dc="http://purl.org/dc/elements/1.1/"
   xmlns:cc="http://creativecommons.org/ns#"
   xmlns:rdf="http://www.w3.org/1999/02/22-rdf-syntax-ns#"
   xmlns:svg="http://www.w3.org/2000/svg"
   xmlns="http://www.w3.org/2000/svg"
   xmlns:xlink="http://www.w3.org/1999/xlink"
   xmlns:sodipodi="http://sodipodi.sourceforge.net/DTD/sodipodi-0.dtd"
   xmlns:inkscape="http://www.inkscape.org/namespaces/inkscape"
   width="1000"
   height="1000"
   viewBox="0 0 264.58333 264.58333"
   version="1.1"
   id="svg8"
   inkscape:version="0.92.3 (2405546, 2018-03-11)"
   sodipodi:docname="hotseat.svg">
  <defs
     id="defs2">
    <inkscape:path-effect
       effect="spiro"
       id="path-effect834"
       is_visible="true" />
    <inkscape:path-effect
       effect="spiro"
       id="path-effect830"
       is_visible="true" />
    <linearGradient
       inkscape:collect="always"
       id="linearGradient821">
      <stop
         style="stop-color:#ffee13;stop-opacity:0.99004978"
         offset="0"
         id="stop817" />
      <stop
         style="stop-color:#ff4704;stop-opacity:1"
         offset="1"
         id="stop819" />
    </linearGradient>
    <inkscape:path-effect
       effect="spiro"
       id="path-effect836"
       is_visible="true" />
    <radialGradient
       inkscape:collect="always"
       xlink:href="#linearGradient821"
       id="radialGradient823"
       cx="139.32716"
       cy="174.60913"
       fx="139.32716"
       fy="174.60913"
       r="97.71504"
       gradientTransform="matrix(1.0473285,-0.00667524,0.01101113,1.7276184,-22.027237,-112.08819)"
       gradientUnits="userSpaceOnUse" />
  </defs>
  <sodipodi:namedview
     id="base"
     pagecolor="#ffffff"
     bordercolor="#666666"
     borderopacity="1.0"
     inkscape:pageopacity="0"
     inkscape:pageshadow="2"
     inkscape:zoom="0.62915332"
     inkscape:cx="406.07552"
     inkscape:cy="441.50363"
     inkscape:document-units="mm"
     inkscape:current-layer="layer3"
     showgrid="true"
     units="px"
     showborder="true"
     inkscape:showpageshadow="false"
     borderlayer="false"
     objecttolerance="5"
     inkscape:snap-perpendicular="true"
     inkscape:window-width="1562"
     inkscape:window-height="833"
     inkscape:window-x="38"
     inkscape:window-y="0"
     inkscape:window-maximized="1"
     gridtolerance="5"
     guidetolerance="5"
     inkscape:pagecheckerboard="true">
    <inkscape:grid
       type="xygrid"
       id="grid10"
       spacingx="26.458333"
       spacingy="26.458333"
       empcolor="#d55f93"
       empopacity="0.53333333"
       dotted="false" />
  </sodipodi:namedview>
  <metadata
     id="metadata5">
    <rdf:RDF>
      <cc:Work
         rdf:about="">
        <dc:format>image/svg+xml</dc:format>
        <dc:type
           rdf:resource="http://purl.org/dc/dcmitype/StillImage" />
        <dc:title />
        <dc:creator>
          <cc:Agent>
            <dc:title>chsch</dc:title>
          </cc:Agent>
        </dc:creator>
        <dc:rights>
          <cc:Agent>
            <dc:title>© 2020, All rights reserved.</dc:title>
          </cc:Agent>
        </dc:rights>
        <dc:publisher>
          <cc:Agent>
            <dc:title>chsch</dc:title>
          </cc:Agent>
        </dc:publisher>
        <dc:description>chsch.info</dc:description>
        <dc:contributor>
          <cc:Agent>
            <dc:title>chsch</dc:title>
          </cc:Agent>
        </dc:contributor>
        <dc:language>English (US)</dc:language>
      </cc:Work>
    </rdf:RDF>
  </metadata>
  <g
     inkscape:label="White Background"
     inkscape:groupmode="layer"
     id="layer1"
     transform="translate(0,-32.416677)"
     sodipodi:insensitive="true"
     style="display:inline">
    <rect
       style="opacity:1;vector-effect:none;fill:#ffffff;fill-opacity:1;stroke:none;stroke-width:3;stroke-linecap:round;stroke-linejoin:bevel;stroke-miterlimit:4;stroke-dasharray:none;stroke-dashoffset:0;stroke-opacity:0.38743454;paint-order:normal"
       id="rect816"
       width="264.58334"
       height="264.58334"
       x="0"
       y="32.416679" />
  </g>
  <g
     inkscape:groupmode="layer"
     id="layer2"
     inkscape:label="Layer"
     style="display:inline">
    <path
       style="fill:url(#radialGradient823);fill-opacity:1;stroke:none;stroke-width:0.26458332px;stroke-linecap:butt;stroke-linejoin:miter;stroke-opacity:1"
       d="m 118.7812,244.71892 c 16.05305,0.41745 32.40233,-2.48805 46.56667,-10.05417 9.28999,-4.9624 17.75604,-12.17752 22.13231,-21.75758 2.20218,-4.82077 3.29753,-10.05691 4.57426,-15.20078 1.27673,-5.14387 2.78974,-10.32907 5.69811,-14.75974 3.06992,-4.67679 7.5216,-8.25287 11.98504,-11.62547 4.46345,-3.3726 9.06957,-6.6751 12.62082,-10.99776 4.24185,-5.16327 6.8017,-11.68643 7.20359,-18.3566 0.40188,-6.67017 -1.35623,-13.4535 -4.94746,-19.08872 -0.0162,3.40876 -0.94372,6.80899 -2.66062,9.75384 -1.7169,2.94485 -4.21897,5.42708 -7.1774,7.12047 -2.95843,1.6934 -6.36594,2.5938 -9.77472,2.58287 -3.40878,-0.0109 -6.81044,-0.93316 -9.75795,-2.64549 -2.98885,-1.73635 -5.50221,-4.28031 -7.20892,-7.28618 -1.70671,-3.00587 -2.60322,-6.46567 -2.57873,-9.92219 0.0396,-5.58741 2.41476,-10.88557 5.12432,-15.77219 2.70955,-4.88661 5.82379,-9.613674 7.57568,-14.919481 2.12963,-6.449854 2.10377,-13.591178 -0.0725,-20.025437 -2.17629,-6.434259 -6.4907,-12.125047 -12.0983,-15.957896 1.15355,10.550409 -0.12493,21.359293 -3.70804,31.349445 -1.88434,5.253761 -4.47795,10.391631 -8.53606,14.223669 -2.02905,1.91602 -4.4111,3.47941 -7.03412,4.43227 -2.62302,0.95287 -5.49059,1.28189 -8.23845,0.79462 -2.50283,-0.44382 -4.87224,-1.55869 -6.86808,-3.13279 -1.99584,-1.57409 -3.62105,-3.599887 -4.80806,-5.847586 -2.37403,-4.495396 -2.96049,-9.787416 -2.33786,-14.832903 1.14435,-9.273165 6.39955,-17.96269 14.08071,-23.282555 -4.36318,1.676993 -9.15606,2.221766 -13.7843,1.566767 -8.92368,-1.2629 -17.05443,-7.189575 -20.9879,-15.298511 -3.93346,-8.108936 -3.55477,-18.163351 0.97751,-25.953434 -9.19847,7.226021 -15.58746,17.938965 -17.57324,29.466488 -1.44204,8.371101 -0.60198,17.112058 2.31996,25.08809 3.53669,9.654121 10.04487,18.215383 12.0798,28.293544 1.33358,6.60467 0.56127,13.75514 -2.87295,19.55222 -2.09553,3.53732 -5.25777,6.57433 -9.16672,7.8487 -2.31324,0.75415 -4.81582,0.86821 -7.2131,0.45244 -2.397287,-0.41577 -4.690616,-1.35173 -6.764611,-2.62389 -4.147988,-2.54432 -7.363845,-6.36663 -10.066394,-10.41331 -6.254077,-9.36458 -10.125484,-20.306739 -11.152251,-31.520771 -4.180232,10.854303 -3.589762,23.451001 1.5875,33.866671 2.701811,5.43553 6.536675,10.21038 9.918455,15.25105 3.381779,5.04067 6.385955,10.55555 7.080439,16.58568 0.690634,5.99671 -1.072285,12.26806 -4.908257,16.92883 -3.835973,4.66077 -9.720176,7.6121 -15.75505,7.7453 -3.698584,0.0816 -7.390828,-0.85812 -10.694826,-2.52239 -3.303998,-1.66427 -6.226361,-4.0393 -8.685724,-6.80294 -4.918727,-5.52728 -7.936939,-12.48778 -10.182571,-19.53774 -2.485991,-7.80454 -4.124387,-15.87876 -4.877113,-24.03501 -3.788342,12.4744 -3.799084,26.06929 -0.03046,38.54966 4.589861,15.20002 14.464292,28.31848 19.614273,43.33797 2.233993,6.51526 3.630134,13.48826 7.581791,19.12951 3.785025,5.40337 9.583678,9.06609 15.568125,11.84264 11.920098,5.53046 25.097274,8.06918 38.233404,8.41077 z"
       id="path834"
       inkscape:connector-curvature="0"
       inkscape:path-effect="#path-effect836"
       inkscape:original-d="m 118.7812,244.71892 c 14.46453,0.0281 33.93477,-0.43095 46.56667,-10.05417 5.30313,-4.04003 16.32162,-11.19717 22.13231,-21.75758 5.81069,-10.56041 6.41358,-24.52409 10.27237,-29.96052 6.71744,-9.46385 20.11659,-11.92114 24.60586,-22.62323 6.62404,-15.79121 2.25613,-37.44532 2.25613,-37.44532 0,0 -19.61201,18.13474 -29.37069,16.81169 -12.9037,-1.74944 -11.36448,-4.28244 -9.78765,-17.20837 1.34071,-10.99035 12.33368,-19.6259 12.7,-30.691671 0.41894,-12.655038 -12.17083,-35.983333 -12.17083,-35.983333 0,0 0.47518,23.567201 -3.70804,31.349445 -4.94147,9.192858 -13.999,23.013979 -23.80863,19.450559 -8.06765,-2.93064 -12.59486,-15.347954 -14.014,-23.813279 -1.16141,-6.927944 14.08071,-23.282555 14.08071,-23.282555 0,0 -11.86336,11.739988 -13.7843,1.566767 -1.11323,-5.895634 -20.01039,-41.251945 -20.01039,-41.251945 0,0 -12.68936,20.414859 -17.57324,29.466488 -4.10756,7.612808 0.0948,16.728921 2.31996,25.08809 2.55703,9.60607 11.27205,18.385846 12.0798,28.293544 0.9201,11.28585 8.16362,17.02023 -2.87295,19.55222 -6.93042,1.58997 -5.4215,13.89287 -9.16672,7.8487 -4.43724,-7.16099 -17.161362,-7.7271 -24.044105,-12.58476 -4.89979,-3.45814 -11.152251,-31.520771 -11.152251,-31.520771 0,0 -2.592568,23.366861 1.5875,33.866671 3.099506,7.78558 15.965524,23.52083 16.998894,31.83673 1.21595,9.78518 -11.066643,22.40867 -20.663307,24.67413 -10.300218,2.43155 -21.030779,-22.60159 -29.563121,-28.86307 -6.827355,-5.01027 -4.877113,-24.03501 -4.877113,-24.03501 0,0 -3.579034,31.00551 -0.03046,38.54966 4.406632,9.36835 18.680254,24.62953 19.614273,43.33797 0.814632,16.31711 9.039497,15.9553 7.581791,19.12951 -3.74918,8.164 11.411886,10.13897 15.568125,11.84264 4.156239,1.70366 23.768884,8.38263 38.233404,8.41077 z"
       sodipodi:nodetypes="zsssscssscssscscsssssscsssscssszz" />
  </g>
  <g
     inkscape:groupmode="layer"
     id="layer3"
     inkscape:label="Layer 1">
    <path
       id="path828"
       style="fill:none;stroke:#000000;stroke-width:10;stroke-linecap:butt;stroke-linejoin:round;stroke-opacity:0.78431374;stroke-miterlimit:4;stroke-dasharray:none"
       inkscape:path-effect="#path-effect830"
       inkscape:original-d="m 105.83333,238.125 c 2.6e-4,-17.63915 2.6e-4,-35.27804 0,-52.91667 -2.7e-4,-17.63862 35.27804,-2.6e-4 52.91667,0 17.63862,2.7e-4 2.6e-4,35.27752 0,52.91667 -2.7e-4,17.63915 2.6e-4,-2.7e-4 0,0 M 123.91649,105.83333 h 16.75034 c 10.01807,0 18.08316,8.06509 18.08316,18.08316 v 43.20867 c 0,10.01808 -8.06509,18.08317 -18.08316,18.08317 h -16.75034 c -10.01807,0 -18.08316,-8.06509 -18.08316,-18.08317 v -43.20867 c 0,-10.01807 8.06509,-18.08316 18.08316,-18.08316 z"
       d="M 105.83333,238.125 V 185.20833 H 158.75 v 52.91667 0 M 123.91649,105.83333 c 5.57629,-0.34615 11.17405,-0.34615 16.75034,0 2.44589,0.15183 4.90485,0.37871 7.26061,1.05387 2.35575,0.67516 4.59964,1.8228 6.38251,3.50411 1.78287,1.6813 3.05755,3.8755 3.72247,6.23416 0.66491,2.35867 0.71757,4.84043 0.71757,7.29102 v 43.20867 c 0,2.4902 -0.0339,5.00708 -0.63892,7.42266 -0.60507,2.41557 -1.79652,4.70339 -3.55736,6.46423 -1.76084,1.76084 -4.04865,2.95229 -6.46422,3.55736 -2.41558,0.60507 -4.93246,0.63892 -7.42266,0.63892 h -16.75034 c -2.4902,0 -5.00708,-0.0339 -7.42266,-0.63892 -2.41557,-0.60507 -4.70338,-1.79652 -6.46422,-3.55736 -1.76084,-1.76084 -2.95229,-4.04866 -3.55736,-6.46423 -0.60507,-2.41558 -0.63892,-4.93246 -0.63892,-7.42266 v -43.20867 c 0,-2.45059 0.0527,-4.93235 0.71757,-7.29102 0.66492,-2.35866 1.9396,-4.55286 3.72247,-6.23416 1.78287,-1.68131 4.02676,-2.82895 6.38251,-3.50411 2.35576,-0.67516 4.81472,-0.90204 7.26061,-1.05387 z" />
    <path
       style="fill:none;stroke:#000000;stroke-width:15;stroke-linecap:round;stroke-linejoin:round;stroke-opacity:0.94527364;stroke-miterlimit:4;stroke-dasharray:none"
       d="M 105.83333,185.20833 H 158.75"
       id="path832"
       inkscape:connector-curvature="0"
       inkscape:original-d="m 105.83333,185.20833 c 17.63915,-2.6e-4 35.27804,-2.6e-4 52.91667,0"
       inkscape:path-effect="#path-effect834" />
  </g>
</svg>
