<?xml version="1.0" encoding="UTF-8" standalone="no"?>
<!-- Created with Inkscape (http://www.inkscape.org/) -->

<svg
   xmlns:osb="http://www.openswatchbook.org/uri/2009/osb"
   xmlns:dc="http://purl.org/dc/elements/1.1/"
   xmlns:cc="http://creativecommons.org/ns#"
   xmlns:rdf="http://www.w3.org/1999/02/22-rdf-syntax-ns#"
   xmlns:svg="http://www.w3.org/2000/svg"
   xmlns="http://www.w3.org/2000/svg"
   xmlns:xlink="http://www.w3.org/1999/xlink"
   xmlns:sodipodi="http://sodipodi.sourceforge.net/DTD/sodipodi-0.dtd"
   xmlns:inkscape="http://www.inkscape.org/namespaces/inkscape"
   width="1000"
   height="1000"
   viewBox="0 0 264.58333 264.58333"
   version="1.1"
   id="svg8"
   inkscape:version="0.92.3 (2405546, 2018-03-11)"
   sodipodi:docname="poggle.svg"
   inkscape:export-filename="/home/chsch/Documents/PYTHON/Tools.EFL.Coach/TEFLC v0.0.1/TEFLC/static/img/apps/icons/poggle.png"
   inkscape:export-xdpi="57.599995"
   inkscape:export-ydpi="57.599995">
  <defs
     id="defs2">
    <linearGradient
       id="linearGradient1781"
       osb:paint="solid">
      <stop
         style="stop-color:#6a6c6e;stop-opacity:1;"
         offset="0"
         id="stop1779" />
    </linearGradient>
    <linearGradient
       inkscape:collect="always"
       id="linearGradient1339">
      <stop
         style="stop-color:#000000;stop-opacity:1;"
         offset="0"
         id="stop1335" />
      <stop
         style="stop-color:#000000;stop-opacity:0;"
         offset="1"
         id="stop1337" />
    </linearGradient>
    <linearGradient
       id="linearGradient1301"
       inkscape:collect="always">
      <stop
         id="stop1297"
         offset="0"
         style="stop-color:#090909;stop-opacity:0.51724136" />
      <stop
         id="stop1299"
         offset="1"
         style="stop-color:#000000;stop-opacity:0.42857143" />
    </linearGradient>
    <radialGradient
       inkscape:collect="always"
       xlink:href="#linearGradient1301"
       id="radialGradient1309"
       cx="132.29102"
       cy="133.7334"
       fx="132.29102"
       fy="133.7334"
       r="96.835938"
       gradientTransform="matrix(1,0,0,0.96814244,0,4.2604203)"
       gradientUnits="userSpaceOnUse" />
    <radialGradient
       inkscape:collect="always"
       xlink:href="#linearGradient1339"
       id="radialGradient1341"
       cx="132.29101"
       cy="133.7334"
       fx="132.29101"
       fy="133.7334"
       r="91.835936"
       gradientTransform="matrix(1,0,0,0.96640795,0,4.4923786)"
       gradientUnits="userSpaceOnUse" />
    <filter
       style="color-interpolation-filters:sRGB;"
       inkscape:label="Drop Shadow"
       id="filter1874">
      <feFlood
         flood-opacity="0.498039"
         flood-color="rgb(0,0,0)"
         result="flood"
         id="feFlood1864" />
      <feComposite
         in="flood"
         in2="SourceGraphic"
         operator="in"
         result="composite1"
         id="feComposite1866" />
      <feGaussianBlur
         in="composite1"
         stdDeviation="3"
         result="blur"
         id="feGaussianBlur1868" />
      <feOffset
         dx="1.38778e-16"
         dy="2.77556e-17"
         result="offset"
         id="feOffset1870" />
      <feComposite
         in="SourceGraphic"
         in2="offset"
         operator="over"
         result="composite2"
         id="feComposite1872" />
    </filter>
  </defs>
  <sodipodi:namedview
     id="base"
     pagecolor="#ffffff"
     bordercolor="#666666"
     borderopacity="1.0"
     inkscape:pageopacity="0"
     inkscape:pageshadow="2"
     inkscape:zoom="0.55025854"
     inkscape:cx="403.98748"
     inkscape:cy="471.50406"
     inkscape:document-units="mm"
     inkscape:current-layer="layer5"
     showgrid="true"
     units="px"
     showborder="true"
     inkscape:showpageshadow="false"
     borderlayer="false"
     objecttolerance="5"
     inkscape:snap-perpendicular="true"
     inkscape:window-width="1562"
     inkscape:window-height="833"
     inkscape:window-x="38"
     inkscape:window-y="0"
     inkscape:window-maximized="1"
     gridtolerance="5"
     guidetolerance="5"
     inkscape:pagecheckerboard="true"
     inkscape:measure-start="0,0"
     inkscape:measure-end="0,0">
    <inkscape:grid
       type="xygrid"
       id="grid10"
       spacingx="26.458333"
       spacingy="26.458333"
       empcolor="#d55f93"
       empopacity="0.53333333"
       dotted="false" />
  </sodipodi:namedview>
  <metadata
     id="metadata5">
    <rdf:RDF>
      <cc:Work
         rdf:about="">
        <dc:format>image/svg+xml</dc:format>
        <dc:type
           rdf:resource="http://purl.org/dc/dcmitype/StillImage" />
        <dc:title />
        <dc:creator>
          <cc:Agent>
            <dc:title>chsch</dc:title>
          </cc:Agent>
        </dc:creator>
        <dc:rights>
          <cc:Agent>
            <dc:title>© 2020, All rights reserved.</dc:title>
          </cc:Agent>
        </dc:rights>
        <dc:publisher>
          <cc:Agent>
            <dc:title>chsch</dc:title>
          </cc:Agent>
        </dc:publisher>
        <dc:description>chsch.info</dc:description>
        <dc:contributor>
          <cc:Agent>
            <dc:title>chsch</dc:title>
          </cc:Agent>
        </dc:contributor>
        <dc:language>English (US)</dc:language>
      </cc:Work>
    </rdf:RDF>
  </metadata>
  <g
     inkscape:label="White Background"
     inkscape:groupmode="layer"
     id="layer1"
     transform="translate(0,-32.416677)"
     style="display:inline"
     sodipodi:insensitive="true">
    <rect
       style="opacity:1;vector-effect:none;fill:#ffffff;fill-opacity:0.98507463;stroke:none;stroke-width:3;stroke-linecap:round;stroke-linejoin:bevel;stroke-miterlimit:4;stroke-dasharray:none;stroke-dashoffset:0;stroke-opacity:0.38743454;paint-order:normal"
       id="rect816"
       width="264.58334"
       height="264.58334"
       x="0"
       y="32.416679" />
  </g>
  <g
     inkscape:groupmode="layer"
     id="layer5"
     inkscape:label="Board">
    <rect
       style="display:inline;opacity:1;vector-effect:none;fill:#3baaf2;fill-opacity:1;stroke:#0c82cc;stroke-width:10;stroke-linecap:round;stroke-linejoin:round;stroke-miterlimit:4;stroke-dasharray:none;stroke-dashoffset:0;stroke-opacity:0.81280786;paint-order:normal;filter:url(#filter1874)"
       id="rect815"
       width="203.99326"
       height="205.59685"
       x="30.295038"
       y="29.493242"
       ry="23.423428"
       rx="23.080063" />
  </g>
  <g
     inkscape:groupmode="layer"
     id="layer2"
     inkscape:label="Dice Outlines"
     style="display:inline">
    <path
       id="rect815-3-5-2-6"
       style="color:#000000;font-style:normal;font-variant:normal;font-weight:normal;font-stretch:normal;font-size:medium;line-height:normal;font-family:sans-serif;font-variant-ligatures:normal;font-variant-position:normal;font-variant-caps:normal;font-variant-numeric:normal;font-variant-alternates:normal;font-feature-settings:normal;text-indent:0;text-align:start;text-decoration:none;text-decoration-line:none;text-decoration-style:solid;text-decoration-color:#000000;letter-spacing:normal;word-spacing:normal;text-transform:none;writing-mode:lr-tb;direction:ltr;text-orientation:mixed;dominant-baseline:auto;baseline-shift:baseline;text-anchor:start;white-space:normal;shape-padding:0;clip-rule:nonzero;display:inline;overflow:visible;visibility:visible;opacity:1;isolation:auto;mix-blend-mode:normal;color-interpolation:sRGB;color-interpolation-filters:linearRGB;solid-color:#000000;solid-opacity:1;vector-effect:none;fill:url(#radialGradient1309);fill-opacity:1;fill-rule:nonzero;stroke:url(#radialGradient1341);stroke-width:10;stroke-linecap:round;stroke-linejoin:round;stroke-miterlimit:4;stroke-dasharray:none;stroke-dashoffset:0;stroke-opacity:0.23936169;paint-order:fill markers stroke;color-rendering:auto;image-rendering:auto;shape-rendering:auto;text-rendering:auto;enable-background:accumulate"
       d="m 188.62109,44.982422 c -5.04335,0 -9.18164,4.138283 -9.18164,9.18164 v 24.783204 c 0,5.043357 4.13829,9.18164 9.18164,9.18164 h 26.32422 c 5.04336,0 9.18164,-4.138283 9.18164,-9.18164 V 54.164062 c 0,-5.043357 -4.13828,-9.18164 -9.18164,-9.18164 z m 0,5 h 26.32422 c 2.35985,0 4.18164,1.821797 4.18164,4.18164 v 24.783204 c 0,2.359843 -1.82179,4.18164 -4.18164,4.18164 h -26.32422 c -2.35984,0 -4.18164,-1.821797 -4.18164,-4.18164 V 54.164062 c 0,-2.359843 1.8218,-4.18164 4.18164,-4.18164 z m 0,39.787109 c -5.04335,0 -9.18164,4.138284 -9.18164,9.181641 v 24.781248 c 0,5.04336 4.13829,9.18164 9.18164,9.18164 h 26.32422 c 5.04336,0 9.18164,-4.13828 9.18164,-9.18164 V 98.951172 c 0,-5.043357 -4.13828,-9.181641 -9.18164,-9.181641 z m 0,5 h 26.32422 c 2.35985,0 4.18164,1.821798 4.18164,4.181641 v 24.781248 c 0,2.35985 -1.82179,4.18164 -4.18164,4.18164 h -26.32422 c -2.35984,0 -4.18164,-1.82179 -4.18164,-4.18164 V 98.951172 c 0,-2.359843 1.8218,-4.181641 4.18164,-4.181641 z m -46.32812,-5 c -5.04336,0 -9.18164,4.138284 -9.18164,9.181641 v 24.781248 c 0,5.04336 4.13828,9.18164 9.18164,9.18164 h 26.32422 c 5.04335,0 9.18164,-4.13828 9.18164,-9.18164 V 98.951172 c 0,-5.043357 -4.13829,-9.181641 -9.18164,-9.181641 z m 0,5 h 26.32422 c 2.35984,0 4.18164,1.821798 4.18164,4.181641 v 24.781248 c 0,2.35985 -1.8218,4.18164 -4.18164,4.18164 h -26.32422 c -2.35984,0 -4.18164,-1.82179 -4.18164,-4.18164 V 98.951172 c 0,-2.359843 1.8218,-4.181641 4.18164,-4.181641 z m 0,-49.787109 c -5.04336,0 -9.18164,4.138283 -9.18164,9.18164 v 24.783204 c 0,5.043357 4.13828,9.18164 9.18164,9.18164 h 26.32422 c 5.04335,0 9.18164,-4.138283 9.18164,-9.18164 V 54.164062 c 0,-5.043357 -4.13829,-9.18164 -9.18164,-9.18164 z m 0,5 h 26.32422 c 2.35984,0 4.18164,1.821797 4.18164,4.18164 v 24.783204 c 0,2.359843 -1.8218,4.18164 -4.18164,4.18164 h -26.32422 c -2.35984,0 -4.18164,-1.821797 -4.18164,-4.18164 V 54.164062 c 0,-2.359843 1.8218,-4.18164 4.18164,-4.18164 z m -46.328126,-5 c -5.043357,0 -9.181641,4.138283 -9.181641,9.18164 v 24.783204 c 0,5.043357 4.138284,9.18164 9.181641,9.18164 h 26.324216 c 5.04336,0 9.18164,-4.138283 9.18164,-9.18164 V 54.164062 c 0,-5.043357 -4.13828,-9.18164 -9.18164,-9.18164 z m 0,5 h 26.324216 c 2.35985,0 4.18164,1.821797 4.18164,4.18164 v 24.783204 c 0,2.359843 -1.82179,4.18164 -4.18164,4.18164 H 95.964844 c -2.359843,0 -4.181641,-1.821797 -4.181641,-4.18164 V 54.164062 c 0,-2.359843 1.821798,-4.18164 4.181641,-4.18164 z m 0,39.787109 c -5.043357,0 -9.181641,4.138284 -9.181641,9.181641 v 24.781248 c 0,5.04336 4.138284,9.18164 9.181641,9.18164 h 26.324216 c 5.04336,0 9.18164,-4.13828 9.18164,-9.18164 V 98.951172 c 0,-5.043357 -4.13828,-9.181641 -9.18164,-9.181641 z m 0,5 h 26.324216 c 2.35985,0 4.18164,1.821798 4.18164,4.181641 v 24.781248 c 0,2.35985 -1.82179,4.18164 -4.18164,4.18164 H 95.964844 c -2.359843,0 -4.181641,-1.82179 -4.181641,-4.18164 V 98.951172 c 0,-2.359843 1.821798,-4.181641 4.181641,-4.181641 z m -46.328125,-5 c -5.043357,0 -9.181641,4.138284 -9.181641,9.181641 v 24.781248 c 0,5.04336 4.138284,9.18164 9.181641,9.18164 h 26.326172 c 5.043357,0 9.179687,-4.13828 9.179687,-9.18164 V 98.951172 c 0,-5.043357 -4.13633,-9.181641 -9.179687,-9.181641 z m 0,5 h 26.326172 c 2.359843,0 4.179687,1.821798 4.179687,4.181641 v 24.781248 c 0,2.35985 -1.819844,4.18164 -4.179687,4.18164 H 49.636719 c -2.359843,0 -4.181641,-1.82179 -4.181641,-4.18164 V 98.951172 c 0,-2.359843 1.821798,-4.181641 4.181641,-4.181641 z m 0,-49.787109 c -5.043357,0 -9.181641,4.138283 -9.181641,9.18164 v 24.783204 c 0,5.043357 4.138284,9.18164 9.181641,9.18164 h 26.326172 c 5.043357,0 9.179687,-4.138283 9.179687,-9.18164 V 54.164062 c 0,-5.043357 -4.13633,-9.18164 -9.179687,-9.18164 z m 0,5 h 26.326172 c 2.359843,0 4.179687,1.821797 4.179687,4.18164 v 24.783204 c 0,2.359843 -1.819844,4.18164 -4.179687,4.18164 H 49.636719 c -2.359843,0 -4.181641,-1.821797 -4.181641,-4.18164 V 54.164062 c 0,-2.359843 1.821798,-4.18164 4.181641,-4.18164 z M 188.62109,134.55469 c -5.04335,0 -9.18164,4.13828 -9.18164,9.18164 v 24.78125 c 0,5.04336 4.13829,9.18164 9.18164,9.18164 h 26.32422 c 5.04336,0 9.18164,-4.13828 9.18164,-9.18164 v -24.78125 c 0,-5.04336 -4.13828,-9.18164 -9.18164,-9.18164 z m 0,5 h 26.32422 c 2.35985,0 4.18164,1.82179 4.18164,4.18164 v 24.78125 c 0,2.35984 -1.82179,4.18164 -4.18164,4.18164 h -26.32422 c -2.35984,0 -4.18164,-1.8218 -4.18164,-4.18164 v -24.78125 c 0,-2.35985 1.8218,-4.18164 4.18164,-4.18164 z m 0,39.78515 c -5.04335,0 -9.18164,4.13829 -9.18164,9.18164 v 24.78125 c 0,5.04336 4.13829,9.18165 9.18164,9.18165 h 26.32422 c 5.04336,0 9.18164,-4.13829 9.18164,-9.18165 v -24.78125 c 0,-5.04335 -4.13828,-9.18164 -9.18164,-9.18164 z m 0,5 h 26.32422 c 2.35985,0 4.18164,1.8218 4.18164,4.18164 v 24.78125 c 0,2.35985 -1.82179,4.18165 -4.18164,4.18165 h -26.32422 c -2.35984,0 -4.18164,-1.8218 -4.18164,-4.18165 v -24.78125 c 0,-2.35984 1.8218,-4.18164 4.18164,-4.18164 z m -46.32812,-5 c -5.04336,0 -9.18164,4.13829 -9.18164,9.18164 v 24.78125 c 0,5.04336 4.13828,9.18165 9.18164,9.18165 h 26.32422 c 5.04335,0 9.18164,-4.13829 9.18164,-9.18165 v -24.78125 c 0,-5.04335 -4.13829,-9.18164 -9.18164,-9.18164 z m 0,5 h 26.32422 c 2.35984,0 4.18164,1.8218 4.18164,4.18164 v 24.78125 c 0,2.35985 -1.8218,4.18165 -4.18164,4.18165 h -26.32422 c -2.35984,0 -4.18164,-1.8218 -4.18164,-4.18165 v -24.78125 c 0,-2.35984 1.8218,-4.18164 4.18164,-4.18164 z m 0,-49.78515 c -5.04336,0 -9.18164,4.13828 -9.18164,9.18164 v 24.78125 c 0,5.04336 4.13828,9.18164 9.18164,9.18164 h 26.32422 c 5.04335,0 9.18164,-4.13828 9.18164,-9.18164 v -24.78125 c 0,-5.04336 -4.13829,-9.18164 -9.18164,-9.18164 z m 0,5 h 26.32422 c 2.35984,0 4.18164,1.82179 4.18164,4.18164 v 24.78125 c 0,2.35984 -1.8218,4.18164 -4.18164,4.18164 h -26.32422 c -2.35984,0 -4.18164,-1.8218 -4.18164,-4.18164 v -24.78125 c 0,-2.35985 1.8218,-4.18164 4.18164,-4.18164 z m -46.328126,-5 c -5.043357,0 -9.181641,4.13828 -9.181641,9.18164 v 24.78125 c 0,5.04336 4.138284,9.18164 9.181641,9.18164 h 26.324216 c 5.04336,0 9.18164,-4.13828 9.18164,-9.18164 v -24.78125 c 0,-5.04336 -4.13828,-9.18164 -9.18164,-9.18164 z m 0,5 h 26.324216 c 2.35985,0 4.18164,1.82179 4.18164,4.18164 v 24.78125 c 0,2.35984 -1.82179,4.18164 -4.18164,4.18164 H 95.964844 c -2.359843,0 -4.181641,-1.8218 -4.181641,-4.18164 v -24.78125 c 0,-2.35985 1.821798,-4.18164 4.181641,-4.18164 z m 0,39.78515 c -5.043357,0 -9.181641,4.13829 -9.181641,9.18164 v 24.78125 c 0,5.04336 4.138284,9.18165 9.181641,9.18165 h 26.324216 c 5.04336,0 9.18164,-4.13829 9.18164,-9.18165 v -24.78125 c 0,-5.04335 -4.13828,-9.18164 -9.18164,-9.18164 z m 0,5 h 26.324216 c 2.35985,0 4.18164,1.8218 4.18164,4.18164 v 24.78125 c 0,2.35985 -1.82179,4.18164 -4.18164,4.18165 H 95.964844 c -2.359843,0 -4.181641,-1.8218 -4.181641,-4.18165 v -24.78125 c 0,-2.35984 1.821798,-4.18164 4.181641,-4.18164 z m -46.328125,-5 c -5.043357,0 -9.179688,4.13829 -9.179688,9.18164 v 24.78125 c 0,5.04336 4.136331,9.18165 9.179688,9.18165 h 26.326172 c 5.043357,0 9.18164,-4.13829 9.18164,-9.18165 v -24.78125 c 0,-5.04335 -4.138283,-9.18164 -9.18164,-9.18164 z m 0,5 h 26.326172 c 2.359843,0 4.18164,1.8218 4.18164,4.18164 v 24.78125 c 0,2.35985 -1.821797,4.18164 -4.18164,4.18165 H 49.636719 c -2.359843,0 -4.179688,-1.8218 -4.179688,-4.18165 v -24.78125 c 0,-2.35984 1.819845,-4.18164 4.179688,-4.18164 z m 0,-49.78515 c -5.043357,0 -9.179688,4.13828 -9.179688,9.18164 v 24.78125 c 0,5.04336 4.136331,9.18164 9.179688,9.18164 h 26.326172 c 5.043357,0 9.18164,-4.13828 9.18164,-9.18164 v -24.78125 c 0,-5.04336 -4.138283,-9.18164 -9.18164,-9.18164 z m 0,5 h 26.326172 c 2.359843,0 4.18164,1.82179 4.18164,4.18164 v 24.78125 c 0,2.35984 -1.821797,4.18164 -4.18164,4.18164 H 49.636719 c -2.359843,0 -4.179688,-1.8218 -4.179688,-4.18164 v -24.78125 c 0,-2.35985 1.819845,-4.18164 4.179688,-4.18164 z"
       inkscape:connector-curvature="0" />
  </g>
  <g
     inkscape:groupmode="layer"
     id="layer4"
     inkscape:label="Dice face"
     style="display:inline">
    <rect
       style="display:inline;opacity:1;vector-effect:none;fill:#ffffff;fill-opacity:1;stroke:none;stroke-width:5;stroke-linecap:round;stroke-linejoin:round;stroke-miterlimit:4;stroke-dasharray:none;stroke-dashoffset:0;stroke-opacity:1;paint-order:normal"
       id="rect815-3-8-0"
       width="39.6875"
       height="38.145184"
       x="42.956051"
       y="135.61189"
       ry="6.6815886"
       rx="0" />
    <rect
       style="display:inline;opacity:1;vector-effect:none;fill:#ffffff;fill-opacity:1;stroke:none;stroke-width:5;stroke-linecap:round;stroke-linejoin:round;stroke-miterlimit:4;stroke-dasharray:none;stroke-dashoffset:0;stroke-opacity:1;paint-order:normal"
       id="rect815-3-6-9-3"
       width="39.6875"
       height="38.145184"
       x="42.956051"
       y="180.39752"
       ry="6.6815886"
       rx="0" />
    <rect
       style="display:inline;opacity:1;vector-effect:none;fill:#ffffff;fill-opacity:1;stroke:none;stroke-width:5;stroke-linecap:round;stroke-linejoin:round;stroke-miterlimit:4;stroke-dasharray:none;stroke-dashoffset:0;stroke-opacity:1;paint-order:normal"
       id="rect815-3-7-7-6"
       width="39.6875"
       height="38.145184"
       x="89.283966"
       y="180.39752"
       ry="6.6815886"
       rx="0" />
    <rect
       style="display:inline;opacity:1;vector-effect:none;fill:#ffffff;fill-opacity:1;stroke:none;stroke-width:5;stroke-linecap:round;stroke-linejoin:round;stroke-miterlimit:4;stroke-dasharray:none;stroke-dashoffset:0;stroke-opacity:1;paint-order:normal"
       id="rect815-3-5-3-1"
       width="39.6875"
       height="38.145184"
       x="89.283966"
       y="135.61189"
       ry="6.6815886"
       rx="0" />
    <rect
       style="display:inline;opacity:1;vector-effect:none;fill:#ffffff;fill-opacity:1;stroke:none;stroke-width:5;stroke-linecap:round;stroke-linejoin:round;stroke-miterlimit:4;stroke-dasharray:none;stroke-dashoffset:0;stroke-opacity:1;paint-order:normal"
       id="rect815-3-3-6-0"
       width="39.6875"
       height="38.145184"
       x="135.61189"
       y="135.61189"
       ry="6.6815886"
       rx="0" />
    <rect
       style="display:inline;opacity:1;vector-effect:none;fill:#ffffff;fill-opacity:1;stroke:none;stroke-width:5;stroke-linecap:round;stroke-linejoin:round;stroke-miterlimit:4;stroke-dasharray:none;stroke-dashoffset:0;stroke-opacity:1;paint-order:normal"
       id="rect815-3-6-5-1-6"
       width="39.6875"
       height="38.145184"
       x="135.61189"
       y="180.39752"
       ry="6.6815886"
       rx="0" />
    <rect
       style="display:inline;opacity:1;vector-effect:none;fill:#ffffff;fill-opacity:1;stroke:none;stroke-width:5;stroke-linecap:round;stroke-linejoin:round;stroke-miterlimit:4;stroke-dasharray:none;stroke-dashoffset:0;stroke-opacity:1;paint-order:normal"
       id="rect815-3-7-6-2-3"
       width="39.6875"
       height="38.145184"
       x="181.9398"
       y="180.39752"
       ry="6.6815886"
       rx="0" />
    <rect
       style="display:inline;opacity:1;vector-effect:none;fill:#ffffff;fill-opacity:1;stroke:none;stroke-width:5;stroke-linecap:round;stroke-linejoin:round;stroke-miterlimit:4;stroke-dasharray:none;stroke-dashoffset:0;stroke-opacity:1;paint-order:normal"
       id="rect815-3-5-2-9-2"
       width="39.6875"
       height="38.145184"
       x="181.9398"
       y="135.61189"
       ry="6.6815886"
       rx="0" />
    <rect
       style="display:inline;opacity:1;vector-effect:none;fill:#ffffff;fill-opacity:1;stroke:none;stroke-width:5;stroke-linecap:round;stroke-linejoin:round;stroke-miterlimit:4;stroke-dasharray:none;stroke-dashoffset:0;stroke-opacity:1;paint-order:normal"
       id="rect815-3-9-3-0"
       width="39.6875"
       height="38.145184"
       x="42.956028"
       y="46.040634"
       ry="6.6815886"
       rx="0" />
    <rect
       style="display:inline;opacity:1;vector-effect:none;fill:#ffffff;fill-opacity:1;stroke:none;stroke-width:5;stroke-linecap:round;stroke-linejoin:round;stroke-miterlimit:4;stroke-dasharray:none;stroke-dashoffset:0;stroke-opacity:1;paint-order:normal"
       id="rect815-3-6-1-1-6"
       width="39.6875"
       height="38.145184"
       x="42.956028"
       y="90.826263"
       ry="6.6815886"
       rx="0" />
    <rect
       style="display:inline;opacity:1;vector-effect:none;fill:#ffffff;fill-opacity:1;stroke:none;stroke-width:5;stroke-linecap:round;stroke-linejoin:round;stroke-miterlimit:4;stroke-dasharray:none;stroke-dashoffset:0;stroke-opacity:1;paint-order:normal"
       id="rect815-3-7-2-9-1"
       width="39.6875"
       height="38.145184"
       x="89.283943"
       y="90.826263"
       ry="6.6815886"
       rx="0" />
    <rect
       style="display:inline;opacity:1;vector-effect:none;fill:#ffffff;fill-opacity:1;stroke:none;stroke-width:5;stroke-linecap:round;stroke-linejoin:round;stroke-miterlimit:4;stroke-dasharray:none;stroke-dashoffset:0;stroke-opacity:1;paint-order:normal"
       id="rect815-3-5-7-4-5"
       width="39.6875"
       height="38.145184"
       x="89.283943"
       y="46.040634"
       ry="6.6815886"
       rx="0" />
    <rect
       style="display:inline;opacity:1;vector-effect:none;fill:#ffffff;fill-opacity:1;stroke:none;stroke-width:5;stroke-linecap:round;stroke-linejoin:round;stroke-miterlimit:4;stroke-dasharray:none;stroke-dashoffset:0;stroke-opacity:1;paint-order:normal"
       id="rect815-3-3-0-7-5"
       width="39.6875"
       height="38.145184"
       x="135.61186"
       y="46.040634"
       ry="6.6815886"
       rx="0" />
    <rect
       style="display:inline;opacity:1;vector-effect:none;fill:#ffffff;fill-opacity:1;stroke:none;stroke-width:5;stroke-linecap:round;stroke-linejoin:round;stroke-miterlimit:4;stroke-dasharray:none;stroke-dashoffset:0;stroke-opacity:1;paint-order:normal"
       id="rect815-3-6-5-9-8-4"
       width="39.6875"
       height="38.145184"
       x="135.61186"
       y="90.826263"
       ry="6.6815886"
       rx="0" />
    <rect
       style="display:inline;opacity:1;vector-effect:none;fill:#ffffff;fill-opacity:1;stroke:none;stroke-width:5;stroke-linecap:round;stroke-linejoin:round;stroke-miterlimit:4;stroke-dasharray:none;stroke-dashoffset:0;stroke-opacity:1;paint-order:normal"
       id="rect815-3-7-6-3-4-7"
       width="39.6875"
       height="38.145184"
       x="181.9398"
       y="90.826263"
       ry="6.6815886"
       rx="0" />
    <rect
       style="display:inline;opacity:1;vector-effect:none;fill:#ffffff;fill-opacity:1;stroke:none;stroke-width:5;stroke-linecap:round;stroke-linejoin:round;stroke-miterlimit:4;stroke-dasharray:none;stroke-dashoffset:0;stroke-opacity:1;paint-order:normal"
       id="rect815-3-5-2-6-5-6"
       width="39.6875"
       height="38.145184"
       x="181.93976"
       y="46.040634"
       ry="6.6815886"
       rx="0" />
    <flowRoot
       xml:space="preserve"
       id="flowRoot1344"
       style="font-style:normal;font-weight:normal;font-size:40px;line-height:0;font-family:sans-serif;letter-spacing:0px;word-spacing:0px;display:inline;fill:#000000;fill-opacity:1;stroke:none"
       transform="matrix(0.26458333,0,0,0.26458333,5.7589887,14.346677)"><flowRegion
         id="flowRegion1346"><rect
           id="rect1348"
           width="656.05524"
           height="600"
           x="170.8288"
           y="200.00002" /></flowRegion><flowPara
         id="flowPara1350"
         style="font-style:normal;font-variant:normal;font-weight:bold;font-stretch:normal;font-size:133.33332825px;font-family:Roboto;-inkscape-font-specification:'Roboto Bold'">P</flowPara></flowRoot>    <flowRoot
       xml:space="preserve"
       id="flowRoot1344-6"
       style="font-style:normal;font-weight:normal;font-size:40px;line-height:0;font-family:sans-serif;letter-spacing:0px;word-spacing:0px;display:inline;fill:#000000;fill-opacity:1;stroke:none"
       transform="matrix(0.26458333,0,0,0.26458333,5.4403174,59.132306)"><flowRegion
         id="flowRegion1346-9"><rect
           id="rect1348-3"
           width="656.05524"
           height="600"
           x="170.8288"
           y="200.00002" /></flowRegion><flowPara
         id="flowPara1350-7"
         style="font-style:normal;font-variant:normal;font-weight:bold;font-stretch:normal;font-size:133.33332825px;font-family:Roboto;-inkscape-font-specification:'Roboto Bold'">O</flowPara></flowRoot>    <flowRoot
       xml:space="preserve"
       id="flowRoot1344-4"
       style="font-style:normal;font-weight:normal;font-size:40px;line-height:0;font-family:sans-serif;letter-spacing:0px;word-spacing:0px;display:inline;fill:#000000;fill-opacity:1;stroke:none"
       transform="matrix(0.26458333,0,0,0.26458333,52.078291,59.132306)"><flowRegion
         id="flowRegion1346-5"><rect
           id="rect1348-2"
           width="656.05524"
           height="600"
           x="170.8288"
           y="200.00002" /></flowRegion><flowPara
         id="flowPara1350-5"
         style="font-style:normal;font-variant:normal;font-weight:bold;font-stretch:normal;font-size:133.33332825px;font-family:Roboto;-inkscape-font-specification:'Roboto Bold'">G</flowPara></flowRoot>    <flowRoot
       xml:space="preserve"
       id="flowRoot1344-47"
       style="font-style:normal;font-weight:normal;font-size:40px;line-height:0;font-family:sans-serif;letter-spacing:0px;word-spacing:0px;display:inline;fill:#000000;fill-opacity:1;stroke:none"
       transform="matrix(0.26458333,0,0,0.26458333,52.078314,103.91794)"><flowRegion
         id="flowRegion1346-4"><rect
           id="rect1348-4"
           width="656.05524"
           height="600"
           x="170.8288"
           y="200.00002" /></flowRegion><flowPara
         id="flowPara1350-3"
         style="font-style:normal;font-variant:normal;font-weight:bold;font-stretch:normal;font-size:133.33332825px;font-family:Roboto;-inkscape-font-specification:'Roboto Bold'">G</flowPara></flowRoot>    <flowRoot
       xml:space="preserve"
       id="flowRoot1344-0"
       style="font-style:normal;font-weight:normal;font-size:40px;line-height:0;font-family:sans-serif;letter-spacing:0px;word-spacing:0px;display:inline;fill:#000000;fill-opacity:1;stroke:none"
       transform="matrix(0.26458333,0,0,0.26458333,99.947921,103.91794)"><flowRegion
         id="flowRegion1346-7"><rect
           id="rect1348-8"
           width="656.05524"
           height="600"
           x="170.8288"
           y="200.00002" /></flowRegion><flowPara
         id="flowPara1350-6"
         style="font-style:normal;font-variant:normal;font-weight:bold;font-stretch:normal;font-size:133.33332825px;font-family:Roboto;-inkscape-font-specification:'Roboto Bold'">L</flowPara></flowRoot>    <flowRoot
       xml:space="preserve"
       id="flowRoot1344-8"
       style="font-style:normal;font-weight:normal;font-size:40px;line-height:0;font-family:sans-serif;letter-spacing:0px;word-spacing:0px;display:inline;fill:#000000;fill-opacity:1;stroke:none"
       transform="matrix(0.26458333,0,0,0.26458333,145.93994,148.70356)"><flowRegion
         id="flowRegion1346-8"><rect
           id="rect1348-43"
           width="656.05524"
           height="600"
           x="170.8288"
           y="200.00002" /></flowRegion><flowPara
         id="flowPara1350-1"
         style="font-style:normal;font-variant:normal;font-weight:bold;font-stretch:normal;font-size:133.33332825px;font-family:Roboto;-inkscape-font-specification:'Roboto Bold'">E</flowPara></flowRoot>  </g>
  <g
     inkscape:groupmode="layer"
     id="layer3"
     inkscape:label="Dice Originals"
     style="display:none"
     sodipodi:insensitive="true">
    <rect
       style="display:inline;opacity:1;vector-effect:none;fill:#ffffff;fill-opacity:1;stroke:#828282;stroke-width:5;stroke-linecap:round;stroke-linejoin:round;stroke-miterlimit:4;stroke-dasharray:none;stroke-dashoffset:0;stroke-opacity:1;paint-order:normal"
       id="rect815-3-8"
       width="39.6875"
       height="38.145184"
       x="42.956055"
       y="135.61188"
       ry="6.6815886"
       rx="0" />
    <rect
       style="display:inline;opacity:1;vector-effect:none;fill:#ffffff;fill-opacity:1;stroke:#828282;stroke-width:5;stroke-linecap:round;stroke-linejoin:round;stroke-miterlimit:4;stroke-dasharray:none;stroke-dashoffset:0;stroke-opacity:1;paint-order:normal"
       id="rect815-3-6-9"
       width="39.6875"
       height="38.145184"
       x="42.956055"
       y="180.39752"
       ry="6.6815886"
       rx="0" />
    <rect
       style="display:inline;opacity:1;vector-effect:none;fill:#ffffff;fill-opacity:1;stroke:#828282;stroke-width:5;stroke-linecap:round;stroke-linejoin:round;stroke-miterlimit:4;stroke-dasharray:none;stroke-dashoffset:0;stroke-opacity:1;paint-order:normal"
       id="rect815-3-7-7"
       width="39.6875"
       height="38.145184"
       x="89.283966"
       y="180.39752"
       ry="6.6815886"
       rx="0" />
    <rect
       style="display:inline;opacity:1;vector-effect:none;fill:#ffffff;fill-opacity:1;stroke:#828282;stroke-width:5;stroke-linecap:round;stroke-linejoin:round;stroke-miterlimit:4;stroke-dasharray:none;stroke-dashoffset:0;stroke-opacity:1;paint-order:normal"
       id="rect815-3-5-3"
       width="39.6875"
       height="38.145184"
       x="89.283966"
       y="135.61188"
       ry="6.6815886"
       rx="0" />
    <rect
       style="display:inline;opacity:1;vector-effect:none;fill:#ffffff;fill-opacity:1;stroke:#828282;stroke-width:5;stroke-linecap:round;stroke-linejoin:round;stroke-miterlimit:4;stroke-dasharray:none;stroke-dashoffset:0;stroke-opacity:1;paint-order:normal"
       id="rect815-3-3-6"
       width="39.6875"
       height="38.145184"
       x="135.61189"
       y="135.61188"
       ry="6.6815886"
       rx="0" />
    <rect
       style="display:inline;opacity:1;vector-effect:none;fill:#ffffff;fill-opacity:1;stroke:#828282;stroke-width:5;stroke-linecap:round;stroke-linejoin:round;stroke-miterlimit:4;stroke-dasharray:none;stroke-dashoffset:0;stroke-opacity:1;paint-order:normal"
       id="rect815-3-6-5-1"
       width="39.6875"
       height="38.145184"
       x="135.61189"
       y="180.39752"
       ry="6.6815886"
       rx="0" />
    <rect
       style="display:inline;opacity:1;vector-effect:none;fill:#ffffff;fill-opacity:1;stroke:#828282;stroke-width:5;stroke-linecap:round;stroke-linejoin:round;stroke-miterlimit:4;stroke-dasharray:none;stroke-dashoffset:0;stroke-opacity:1;paint-order:normal"
       id="rect815-3-7-6-2"
       width="39.6875"
       height="38.145184"
       x="181.9398"
       y="180.39752"
       ry="6.6815886"
       rx="0" />
    <rect
       style="display:inline;opacity:1;vector-effect:none;fill:#ffffff;fill-opacity:1;stroke:#828282;stroke-width:5;stroke-linecap:round;stroke-linejoin:round;stroke-miterlimit:4;stroke-dasharray:none;stroke-dashoffset:0;stroke-opacity:1;paint-order:normal"
       id="rect815-3-5-2-9"
       width="39.6875"
       height="38.145184"
       x="181.9398"
       y="135.61188"
       ry="6.6815886"
       rx="0" />
    <rect
       style="display:inline;opacity:1;vector-effect:none;fill:#ffffff;fill-opacity:1;stroke:#828282;stroke-width:5;stroke-linecap:round;stroke-linejoin:round;stroke-miterlimit:4;stroke-dasharray:none;stroke-dashoffset:0;stroke-opacity:1;paint-order:normal"
       id="rect815-3-9-3"
       width="39.6875"
       height="38.145184"
       x="42.956028"
       y="46.040627"
       ry="6.6815886"
       rx="0" />
    <rect
       style="display:inline;opacity:1;vector-effect:none;fill:#ffffff;fill-opacity:1;stroke:#828282;stroke-width:5;stroke-linecap:round;stroke-linejoin:round;stroke-miterlimit:4;stroke-dasharray:none;stroke-dashoffset:0;stroke-opacity:1;paint-order:normal"
       id="rect815-3-6-1-1"
       width="39.6875"
       height="38.145184"
       x="42.956028"
       y="90.826256"
       ry="6.6815886"
       rx="0" />
    <rect
       style="display:inline;opacity:1;vector-effect:none;fill:#ffffff;fill-opacity:1;stroke:#828282;stroke-width:5;stroke-linecap:round;stroke-linejoin:round;stroke-miterlimit:4;stroke-dasharray:none;stroke-dashoffset:0;stroke-opacity:1;paint-order:normal"
       id="rect815-3-7-2-9"
       width="39.6875"
       height="38.145184"
       x="89.283943"
       y="90.826256"
       ry="6.6815886"
       rx="0" />
    <rect
       style="display:inline;opacity:1;vector-effect:none;fill:#ffffff;fill-opacity:1;stroke:#828282;stroke-width:5;stroke-linecap:round;stroke-linejoin:round;stroke-miterlimit:4;stroke-dasharray:none;stroke-dashoffset:0;stroke-opacity:1;paint-order:normal"
       id="rect815-3-5-7-4"
       width="39.6875"
       height="38.145184"
       x="89.283943"
       y="46.040627"
       ry="6.6815886"
       rx="0" />
    <rect
       style="display:inline;opacity:1;vector-effect:none;fill:#ffffff;fill-opacity:1;stroke:#828282;stroke-width:5;stroke-linecap:round;stroke-linejoin:round;stroke-miterlimit:4;stroke-dasharray:none;stroke-dashoffset:0;stroke-opacity:1;paint-order:normal"
       id="rect815-3-3-0-7"
       width="39.6875"
       height="38.145184"
       x="135.61186"
       y="46.040627"
       ry="6.6815886"
       rx="0" />
    <rect
       style="display:inline;opacity:1;vector-effect:none;fill:#ffffff;fill-opacity:1;stroke:#828282;stroke-width:5;stroke-linecap:round;stroke-linejoin:round;stroke-miterlimit:4;stroke-dasharray:none;stroke-dashoffset:0;stroke-opacity:1;paint-order:normal"
       id="rect815-3-6-5-9-8"
       width="39.6875"
       height="38.145184"
       x="135.61186"
       y="90.826256"
       ry="6.6815886"
       rx="0" />
    <rect
       style="display:inline;opacity:1;vector-effect:none;fill:#ffffff;fill-opacity:1;stroke:#828282;stroke-width:5;stroke-linecap:round;stroke-linejoin:round;stroke-miterlimit:4;stroke-dasharray:none;stroke-dashoffset:0;stroke-opacity:1;paint-order:normal"
       id="rect815-3-7-6-3-4"
       width="39.6875"
       height="38.145184"
       x="181.9398"
       y="90.826256"
       ry="6.6815886"
       rx="0" />
    <rect
       style="display:inline;opacity:1;vector-effect:none;fill:#ffffff;fill-opacity:1;stroke:#828282;stroke-width:5;stroke-linecap:round;stroke-linejoin:round;stroke-miterlimit:4;stroke-dasharray:none;stroke-dashoffset:0;stroke-opacity:1;paint-order:normal"
       id="rect815-3-5-2-6-5"
       width="39.6875"
       height="38.145184"
       x="181.93977"
       y="46.040627"
       ry="6.6815886"
       rx="0" />
  </g>
  <g
     inkscape:groupmode="layer"
     id="layer7"
     inkscape:label="Board Original"
     sodipodi:insensitive="true"
     style="display:none">
    <rect
       style="display:inline;opacity:1;vector-effect:none;fill:#3baaf2;fill-opacity:1;stroke:#0c82cc;stroke-width:10;stroke-linecap:round;stroke-linejoin:round;stroke-miterlimit:4;stroke-dasharray:none;stroke-dashoffset:0;stroke-opacity:0.81280787;paint-order:normal"
       id="rect815-9"
       width="203.99327"
       height="205.59685"
       x="30.295031"
       y="29.493242"
       ry="23.423428"
       rx="23.080063" />
  </g>
</svg>
